<svg width="3024" height="3000" viewBox="0 0 3024 3000" fill="none" xmlns="http://www.w3.org/2000/svg">
  <defs>
    <!-- Main gradient background -->
    <radialGradient id="mainGradient" cx="50%" cy="40%" r="80%">
      <stop offset="0%" stop-color="#E8F4F2"/>
      <stop offset="50%" stop-color="#D1E9E4"/>
      <stop offset="100%" stop-color="#B8DDD6"/>
    </radialGradient>
    
    <!-- Secondary gradient overlay -->
    <linearGradient id="overlayGradient" x1="0%" y1="0%" x2="100%" y2="100%">
      <stop offset="0%" stop-color="#49887B" stop-opacity="0.03"/>
      <stop offset="50%" stop-color="#64867E" stop-opacity="0.05"/>
      <stop offset="100%" stop-color="#49887B" stop-opacity="0.02"/>
    </linearGradient>
    
    <!-- Subtle pattern gradient -->
    <radialGradient id="patternGradient" cx="50%" cy="50%" r="30%">
      <stop offset="0%" stop-color="#49887B" stop-opacity="0.02"/>
      <stop offset="100%" stop-color="#49887B" stop-opacity="0"/>
    </radialGradient>
    
    <!-- Clip path for triangle cut -->
    <clipPath id="triangleCut">
      <path d="M0,0 L3024,0 L3024,2800 L1512,3000 L0,2800 Z"/>
    </clipPath>
  </defs>
  
  <g clip-path="url(#triangleCut)">
    <!-- Main background -->
    <rect width="3024" height="3000" fill="url(#mainGradient)"/>
    
    <!-- Overlay gradient -->
    <rect width="3024" height="3000" fill="url(#overlayGradient)"/>
    
    <!-- Subtle geometric patterns -->
    <g opacity="0.6">
      <!-- Large circles -->
      <circle cx="2400" cy="300" r="150" fill="url(#patternGradient)"/>
      <circle cx="200" cy="800" r="120" fill="url(#patternGradient)"/>
      <circle cx="2800" cy="1400" r="180" fill="url(#patternGradient)"/>
      <circle cx="600" cy="1600" r="100" fill="url(#patternGradient)"/>
      
      <!-- Medium circles -->
      <circle cx="1800" cy="600" r="80" fill="#49887B" fill-opacity="0.015"/>
      <circle cx="400" cy="400" r="60" fill="#49887B" fill-opacity="0.02"/>
      <circle cx="2600" cy="1000" r="90" fill="#49887B" fill-opacity="0.018"/>
      <circle cx="1000" cy="1200" r="70" fill="#49887B" fill-opacity="0.025"/>
      
      <!-- Small decorative elements -->
      <circle cx="1500" cy="200" r="25" fill="#64867E" fill-opacity="0.03"/>
      <circle cx="2200" cy="800" r="30" fill="#64867E" fill-opacity="0.025"/>
      <circle cx="800" cy="600" r="20" fill="#64867E" fill-opacity="0.035"/>
      <circle cx="2000" cy="1600" r="35" fill="#64867E" fill-opacity="0.028"/>
    </g>
    
    <!-- Subtle wave patterns -->
    <g opacity="0.4">
      <path d="M0,1200 Q756,1100 1512,1200 T3024,1200 L3024,2800 L1512,3000 L0,2800 Z" fill="#49887B" fill-opacity="0.01"/>
      <path d="M0,1400 Q756,1300 1512,1400 T3024,1400 L3024,2800 L1512,3000 L0,2800 Z" fill="#64867E" fill-opacity="0.015"/>
    </g>
  </g>
</svg>